<svg id="Layer_1" data-name="Layer 1" xmlns="http://www.w3.org/2000/svg" viewBox="0 0 567.71 492.38"><path d="M-800.35,853.87c-27.82,0-52.73.35-77.61-.41-3.37-.11-7.42-5.29-9.72-9C-902.24,820.91-914.85,796-931,773.64c-29-40.18-67-69.1-115.4-83.37-4.12-1.21-9-7.24-9.56-11.56a121.27,121.27,0,0,1-.32-32.07c7.18-52.49-15.39-90.83-56-121.24-.54.69-1.45,1.43-1.32,1.75,12.29,30.86,8.44,60.41-6.78,89.24-10.06,19.05-13.46,38.81-2.76,60.66-33.42,7.52-48.35,32.61-62.07,59.5-11,21.51-17.54,25.72-53.59,41.25,19.65,13.67,40.33,17.82,62.57,14.15,33.13-5.48,58.21-23.78,78.28-50.08,2.6-3.41,8.85-7.3,12.19-6.41,59,15.76,103.2,48.35,121.82,109.25.64,2.11.95,4.32,1.71,7.88h-405.86c94.41-163.55,188.32-326.2,283.47-491Z" transform="translate(1368.06 -361.57)"/></svg>